<svg id="Ebene_1" data-name="Ebene 1" xmlns="http://www.w3.org/2000/svg" viewBox="0 0 444.59 444.58"><defs><style>.cls-1{fill:#404040;fill-rule:evenodd;}</style></defs><title>iconfinder_spotify_rounded_621252</title><path class="cls-1" d="M256,34.44C133.2,34.44,33.67,134,33.67,256.72S133.2,479,256,479s222.3-99.53,222.3-222.3S378.74,34.44,256,34.44Zm90.19,327.18c-3.6,0-6-1.25-9.41-3.29-32.22-19.49-72.39-29.74-115-29.74-23.79,0-47.73,3.05-70.12,7.71-3.64.79-8.22,2.2-11,2.2a13.88,13.88,0,0,1-14.07-14c0-9.34,5.39-14,12.09-15.27,27.46-6.26,54.8-9.83,83.21-9.83,48.64,0,92,11.16,129.3,33.52,5.55,3.24,8.8,6.55,8.8,14.77A13.84,13.84,0,0,1,346.15,361.62Zm24.22-58.84c-4.82,0-7.86-1.94-11.14-3.85-36.16-21.46-86.27-35.71-141.15-35.71a281.08,281.08,0,0,0-72.56,9.29c-4.33,1.19-6.76,2.48-10.81,2.48a17.42,17.42,0,0,1-17.37-17.43c0-9.45,4.58-16,13.83-18.57,25-6.86,50.5-12.15,87.64-12.15,58.19,0,114.48,14.49,158.73,41,7.42,4.26,10.15,9.65,10.15,17.57A17.28,17.28,0,0,1,370.37,302.78ZM398,234.36c-4.53,0-7.21-1.1-11.46-3.42-40.23-24.13-102.67-37.42-163.06-37.42-30.14,0-60.76,3.07-88.8,10.68-3.23.81-7.31,2.43-11.4,2.43a20.83,20.83,0,0,1-21-21.24c0-12.08,7.48-18.86,15.56-21.25,31.69-9.33,67.06-13.68,105.51-13.68,65.27,0,134,13.42,184.11,42.89,6.76,3.83,11.46,9.6,11.46,20.18A20.73,20.73,0,0,1,398,234.36Z" transform="translate(-33.67 -34.44)"/></svg>