<?xml version="1.0" encoding="iso-8859-1"?>
<!-- Generator: Adobe Illustrator 19.0.0, SVG Export Plug-In . SVG Version: 6.00 Build 0)  -->
<svg version="1.1" id="Capa_1" xmlns="http://www.w3.org/2000/svg" xmlns:xlink="http://www.w3.org/1999/xlink" x="0px" y="0px"
	 viewBox="0 0 511.282 511.282" style="enable-background:new 0 0 511.282 511.282;" xml:space="preserve">
<path style="fill:#425A6B;" d="M174.634,359.816c0,0-1.067,1.067-1.067,2.133c-5.333,6.4-20.267,32-18.133,71.467
	c3.2,46.933,9.6,77.867,9.6,77.867H249.3l4.267-29.867l16,29.867h98.133c0,0-8.533-35.2-8.533-39.467c0-4.267,1.067-6.4-2.133-9.6
	c-3.2-3.2-4.267-5.333-4.267-10.667s4.267-26.667,4.267-26.667c2.133-7.467-8.533-20.267-16-32"/>
<path style="fill:#F26F5A;" d="M295.167,29.149c1.067,8.533,2.133,16,4.267,24.533c1.067,8.533,3.2,18.133,6.4,26.667
	c5.333,13.867,16,24.533,23.467,37.333c8.533,11.733,14.933,26.667,10.667,41.6c-2.133-9.6-11.733-14.933-20.267-18.133
	s-18.133-4.267-26.667-9.6c-12.8-7.467-21.333-22.4-23.467-37.333c-3.2-14.933-1.067-29.867,1.067-45.867"/>
<path style="fill:#FFD15C;" d="M300.5,82.482c0,0-2.133,21.333-9.6,29.867l12.8,21.333l1.067,39.467l-19.2,11.733l-49.067-11.733
	l1.067-35.2c0,0,4.267-25.6,5.333-27.733c0,0-9.6-19.2-11.733-36.267c-2.133-17.067-2.133-17.067-2.133-17.067l5.333-16
	c0,0-5.333-11.733,11.733-13.867c16-2.133,54.4,1.067,54.4,1.067s10.667,23.467,8.533,34.133
	C305.834,72.882,300.5,82.482,300.5,82.482z"/>
<path style="fill:#F3F3F3;" d="M235.434,163.549c26.667,20.267,54.4,20.267,81.067,0l30.933,230.4c0,0-33.067,17.067-85.333,4.267
	s-80-26.667-86.4-32c-6.4-6.4,25.6-70.4,25.6-70.4"/>
<path style="fill:#F5B54C;" d="M269.567,127.282c-12.8,1.067-25.6-14.933-25.6-14.933c-1.067,2.133-5.333,27.733-5.333,27.733
	l-1.067,21.333c9.6-5.333,23.467-11.733,33.067-17.067c14.933-7.467,0-2.133-9.6-4.267c-9.6-1.067,9.6-3.2,19.2-9.6
	c8.533-6.4,11.733-18.133,11.733-18.133S281.3,126.216,269.567,127.282z"/>
<g>
	<path style="fill:#425A6B;" d="M360.234,136.882c0,0-9.6,10.667-10.667,24.533c0,13.867,6.4,38.4,6.4,38.4s-6.4,41.6-6.4,65.067
		s5.333,75.733,5.333,89.6c0,13.867-8.533,39.467-8.533,39.467s37.333,21.333,21.333,30.933c0,0,5.333,0,10.667-11.733
		c4.267-11.733,6.4-14.933,8.533-21.333c2.133-6.4,0-60.8,0-74.667c0-13.867-1.067-21.333-3.2-30.933s-2.133-17.067-5.333-27.733
		c-2.133-10.667-3.2-29.867-3.2-45.867C376.234,196.616,374.1,143.282,360.234,136.882z"/>
	<path style="fill:#425A6B;" d="M161.834,339.549c1.067-2.133,2.133-3.2,3.2-6.4c2.133-7.467,9.6-22.4,9.6-29.867
		c1.067-7.467,8.533-45.867,8.533-45.867l13.867-22.4l-5.333-94.933l-13.867-2.133c0,0-5.333-3.2-10.667,12.8
		c-5.333,16-14.933,70.4-17.067,82.133c-2.133,11.733-7.467,25.6-10.667,33.067c-3.2,7.467-9.6,37.333-9.6,37.333
		s-2.133,20.267-4.267,36.267H161.834z"/>
</g>
<path style="fill:#344A5E;" d="M231.167,276.616c0,0-12.8,41.6-17.067,48c-3.2,6.4-33.067,44.8-38.4,51.2
	c-5.333,6.4-7.467,6.4-7.467,6.4l-19.2-8.533c0,0,33.067-42.667,35.2-50.133c2.133-7.467-1.067-69.333-1.067-69.333l2.133-33.067
	c0,0-2.133-73.6-6.4-84.267c0,0,16,0,22.4-2.133c6.4-2.133,34.133-8.533,34.133-8.533v40.533L231.167,276.616z"/>
<path style="fill:#FFD15C;" d="M154.367,413.149c0,0,16-24.533,21.333-26.667c0,0,14.933,0,19.2,0c3.2,0,4.267-7.467,0-8.533
	s-22.4-4.267-22.4-4.267l-11.733-4.267l-29.867,5.333C131.967,375.816,125.567,385.416,154.367,413.149z"/>
<path style="fill:#344A5E;" d="M312.234,132.616c0,0,36.267,4.267,41.6,4.267c5.333,0,7.467,0,7.467,0s-5.333,43.733-4.267,62.933
	c0,0,5.333,209.067,11.733,217.6c0,0-24.533-5.333-27.733-23.467c-3.2-18.133-22.4-97.067-22.4-97.067"/>
<g>
	<path style="fill:#FFD15C;" d="M350.634,391.816c0,0-7.467,7.467-10.667,8.533c-2.133,2.133-7.467,5.333-5.333,9.6
		c2.133,4.267,4.267,4.267,7.467,1.067c3.2-3.2,4.267-4.267,4.267-4.267s9.6,11.733,9.6,16c0,0,5.333-4.267,8.533-7.467
		s9.6-6.4,9.6-6.4S357.034,390.749,350.634,391.816z"/>
	
		<ellipse transform="matrix(-0.2128 -0.9771 0.9771 -0.2128 206.6108 312.3603)" style="fill:#FFD15C;" cx="229.132" cy="72.952" rx="13.867" ry="5.333"/>
	
		<ellipse transform="matrix(-0.2129 0.9771 -0.9771 -0.2129 443.8075 -208.0775)" style="fill:#FFD15C;" cx="305.715" cy="74.721" rx="13.867" ry="5.333"/>
</g>
<g>
	<path style="fill:#425A6B;" d="M291.967,112.349c0,0,12.8,83.2,12.8,99.2c2.133,37.333,24.533,134.4,24.533,134.4
		s-9.6-68.267-10.667-81.067c-1.067-13.867,6.4-60.8,10.667-75.733c4.267-14.933,8.533-37.333,8.533-37.333l-22.4-7.467
		l11.733,1.067C326.1,144.349,302.634,117.682,291.967,112.349z"/>
	<path style="fill:#425A6B;" d="M243.967,112.349c0,0-5.333,4.267-8.533,11.733c-3.2,7.467-14.933,14.933-18.133,20.267l12.8,7.467
		l-22.4-2.133c0,0,3.2,34.133,11.733,48c8.533,14.933,10.667,97.067-4.267,126.933c0,0,24.533-42.667,26.667-82.133
		C243.967,203.016,238.634,132.616,243.967,112.349z"/>
	<path style="fill:#425A6B;" d="M163.967,333.149c1.067-4.267,3.2-10.667,5.333-16h-42.667c-1.067,12.8-3.2,32-3.2,38.4
		c0,10.667,8.533,48,8.533,48s9.6-16,20.267-20.267c10.667-4.267,14.933-11.733,14.933-11.733s-8.533-16-9.6-22.4
		C157.567,341.682,162.9,340.616,163.967,333.149z"/>
	<path style="fill:#425A6B;" d="M386.9,390.749c-2.133,6.4-4.267,9.6-8.533,21.333c-4.267,11.733-10.667,11.733-10.667,11.733
		c16-9.6-21.333-30.933-21.333-30.933s8.533-26.667,8.533-40.533c0-12.8-5.333-66.133-5.333-89.6s6.4-65.067,6.4-65.067h19.2
		c0,5.333,0,9.6,0,12.8c0,16,0,35.2,3.2,45.867c2.133,10.667,3.2,19.2,5.333,27.733c2.133,9.6,3.2,17.067,3.2,30.933
		C386.9,331.016,387.967,384.349,386.9,390.749z"/>
</g>
<path style="fill:#344A5E;" d="M273.834,510.216l-16-30.933c3.2,2.133,21.333,6.4,34.133,8.533c12.8,2.133,23.467-3.2,3.2-3.2
	s-36.267-7.467-29.867-6.4c6.4,1.067,24.533,1.067,45.867,1.067s9.6-3.2,1.067-3.2s-28.8-2.133-41.6-5.333
	c-12.8-3.2-5.333-3.2,1.067-3.2c5.333,0,11.733,1.067,28.8,1.067c16,0,28.8,3.2,38.4,2.133s-13.867-2.133-34.133-3.2
	c-20.267-1.067-40.533-6.4-43.733-8.533c-3.2-2.133-11.733-11.733-28.8-20.267c-17.067-8.533-38.4-7.467-24.533-4.267
	c13.867,3.2,44.8,22.4,51.2,26.667c6.4,4.267,1.067,3.2-6.4,0c-7.467-3.2-28.8-8.533-49.067-11.733
	c-19.2-3.2-14.933,1.067-2.133,3.2c12.8,2.133,41.6,12.8,49.067,16c7.467,3.2,7.467,6.4,3.2,5.333c-4.267-2.133-19.2-1.067-29.867,0
	s-4.267,2.133-4.267,2.133c36.267-2.133,36.267,5.333,36.267,5.333l16,29.867h2.133V510.216z"/>
<path style="fill:#F26F5A;" d="M232.234,66.482v4.267h2.133c0,0,0-8.533,0-17.067s3.2-21.333,11.733-20.267
	c9.6,1.067,28.8,7.467,42.667,2.133c12.8-5.333,18.133,11.733,18.133,17.067s-2.133,22.4-2.133,22.4s4.267-10.667,6.4-11.733
	c0,0,3.2-13.867-3.2-32c0,0-7.467-23.467-29.867-29.867c-22.4-6.4-36.267,10.667-40.533,16s-12.8,37.333-11.733,42.667
	C227.967,59.016,231.167,57.949,232.234,66.482z"/>
<g>
</g>
<g>
</g>
<g>
</g>
<g>
</g>
<g>
</g>
<g>
</g>
<g>
</g>
<g>
</g>
<g>
</g>
<g>
</g>
<g>
</g>
<g>
</g>
<g>
</g>
<g>
</g>
<g>
</g>
</svg>
